<svg height="512pt" viewBox="-98 0 512 512" width="512pt" xmlns="http://www.w3.org/2000/svg"><path d="m277.5 7.5-60 248.5 60 248.5h30v-497zm0 0" fill="#90420c"/><path d="m7.5 7.5v497h270v-30l-30-50.5 30-55.167969v-60l-30-52.832031 30-52.832031v-60l-30-52.167969 30-53.5v-30zm0 0" fill="#b54f17"/><path d="m277.5 203.167969h-90v30l60 75.664062h30zm0 0" fill="#6b3400"/><path d="m187.5 233.167969h60v75.667969h-60zm0 0" fill="#90420c"/><path d="m277.5 37.5h-90v30l60 75.667969h30zm0 0" fill="#6b3400"/><path d="m187.5 67.5h60v75.667969h-60zm0 0" fill="#90420c"/><path d="m277.5 368.832031h-90v30l60 75.667969h30zm0 0" fill="#6b3400"/><path d="m187.5 398.832031h60v75.667969h-60zm0 0" fill="#90420c"/><path d="m127.5 203.167969h-90v30l60 75.664062h30zm0 0" fill="#6b3400"/><path d="m37.5 233.167969h60v75.667969h-60zm0 0" fill="#90420c"/><path d="m127.5 37.5h-90v30l60 75.667969h30zm0 0" fill="#6b3400"/><path d="m37.5 67.5h60v75.667969h-60zm0 0" fill="#90420c"/><path d="m127.5 368.832031h-90v30l60 75.667969h30zm0 0" fill="#6b3400"/><path d="m37.5 398.832031h60v75.667969h-60zm0 0" fill="#90420c"/><path d="m307.5 0h-300c-4.144531 0-7.5 3.355469-7.5 7.5v497c0 4.144531 3.355469 7.5 7.5 7.5h300c4.144531 0 7.5-3.355469 7.5-7.5v-497c0-4.144531-3.355469-7.5-7.5-7.5zm-292.5 180.667969h135v150.664062h-135zm150 0h135v150.664062h-135zm135-15h-135v-150.667969h135zm-150-150.667969v150.667969h-135v-150.667969zm-135 331.332031h135v150.667969h-135zm150 150.667969v-150.667969h135v150.667969zm0 0"/><path d="m277.5 195.667969h-90c-4.144531 0-7.5 3.355469-7.5 7.5v30c0 4.140625 3.355469 7.5 7.5 7.5s7.5-3.359375 7.5-7.5v-22.5h75v90.664062h-75v-38.164062c0-4.144531-3.355469-7.5-7.5-7.5s-7.5 3.355469-7.5 7.5v45.664062c0 4.144531 3.355469 7.5 7.5 7.5h90c4.144531 0 7.5-3.355469 7.5-7.5v-105.664062c0-4.144531-3.355469-7.5-7.5-7.5zm0 0"/><path d="m187.5 90c-4.144531 0-7.5 3.355469-7.5 7.5v45.667969c0 4.140625 3.355469 7.5 7.5 7.5h90c4.144531 0 7.5-3.359375 7.5-7.5v-105.667969c0-4.144531-3.355469-7.5-7.5-7.5h-90c-4.144531 0-7.5 3.355469-7.5 7.5v30c0 4.144531 3.355469 7.5 7.5 7.5s7.5-3.355469 7.5-7.5v-22.5h75v90.667969h-75v-38.167969c0-4.144531-3.355469-7.5-7.5-7.5zm0 0"/><path d="m277.5 361.332031h-90c-4.144531 0-7.5 3.359375-7.5 7.5v30c0 4.144531 3.355469 7.5 7.5 7.5s7.5-3.355469 7.5-7.5v-22.5h75v90.667969h-75v-38.167969c0-4.140625-3.355469-7.5-7.5-7.5s-7.5 3.359375-7.5 7.5v45.667969c0 4.144531 3.355469 7.5 7.5 7.5h90c4.144531 0 7.5-3.355469 7.5-7.5v-105.667969c0-4.140625-3.355469-7.5-7.5-7.5zm0 0"/><path d="m127.5 195.667969h-90c-4.144531 0-7.5 3.355469-7.5 7.5v30c0 4.140625 3.355469 7.5 7.5 7.5s7.5-3.359375 7.5-7.5v-22.5h75v90.664062h-75v-38.164062c0-4.144531-3.355469-7.5-7.5-7.5s-7.5 3.355469-7.5 7.5v45.664062c0 4.144531 3.355469 7.5 7.5 7.5h90c4.144531 0 7.5-3.355469 7.5-7.5v-105.664062c0-4.144531-3.355469-7.5-7.5-7.5zm0 0"/><path d="m37.5 150.667969h90c4.144531 0 7.5-3.359375 7.5-7.5v-105.667969c0-4.144531-3.355469-7.5-7.5-7.5h-90c-4.144531 0-7.5 3.355469-7.5 7.5v30c0 4.144531 3.355469 7.5 7.5 7.5s7.5-3.355469 7.5-7.5v-22.5h75v90.667969h-75v-38.167969c0-4.144531-3.355469-7.5-7.5-7.5s-7.5 3.355469-7.5 7.5v45.667969c0 4.140625 3.355469 7.5 7.5 7.5zm0 0"/><path d="m127.5 361.332031h-90c-4.144531 0-7.5 3.359375-7.5 7.5v30c0 4.144531 3.355469 7.5 7.5 7.5s7.5-3.355469 7.5-7.5v-22.5h75v90.667969h-75v-38.167969c0-4.140625-3.355469-7.5-7.5-7.5s-7.5 3.359375-7.5 7.5v45.667969c0 4.144531 3.355469 7.5 7.5 7.5h90c4.144531 0 7.5-3.355469 7.5-7.5v-105.667969c0-4.140625-3.355469-7.5-7.5-7.5zm0 0"/></svg>